#!OML:ASF F:\VICON\USERDATA\INSTALL\rory3\rory3.ASF
:FULLY-SPECIFIED
:DEGREES
145
root -10.9287 18.2385 1.11416 176.691 -0.453721 175.597
lowerback 8.80206 -3.82858 -5.77406
upperback 0.298803 -5.65631 2.64126
thorax -3.78806 -2.72848 6.65599
lowerneck 8.24087 -24.7536 -15.9968
upperneck 33.5959 -34.6982 12.5369
head 16.1671 -14.9545 2.71956
rclavicle 5.84427e-014 -3.02153e-014
rhumerus -31.005 -14.1672 -77.6469
rradius 32.6541
rwrist 3.11786
rhand -15.7801 8.3934
rfingers 7.12502
rthumb 10.4123 -21.3288
lclavicle 5.84427e-014 -3.02153e-014
lhumerus -35.5953 4.03215 85.1436
lradius 35.7377
lwrist -5.99203
lhand -17.3809 24.9149
lfingers 7.12502
lthumb 8.86778 54.7086
rfemur -10.8973 -4.60629 15.3439
rtibia 66.2884
rfoot 7.39055 17.8806
rtoes -10.9559
lfemur 0.961953 2.20585 -28.0322
ltibia 16.4478
lfoot 5.49948 -23.3428
ltoes 11.1224
146
root -10.9276 18.2219 1.22349 176.873 -0.463289 175.807
lowerback 8.60019 -3.677 -5.59019
upperback 0.144266 -5.41754 2.59596
thorax -3.89468 -2.59955 6.47337
lowerneck 7.91601 -24.7191 -15.8285
upperneck 33.6152 -34.614 12.4192
head 16.1458 -14.8802 2.64893
rclavicle 5.1038e-014 -2.38542e-015
rhumerus -31.0845 -14.0048 -77.9116
rradius 32.6643
rwrist 3.24495
rhand -16.1105 8.85712
rfingers 7.12502
rthumb 10.0935 -20.8808
lclavicle 5.1038e-014 -2.38542e-015
lhumerus -36.0601 4.61143 84.8
lradius 35.4224
lwrist -5.93213
lhand -16.9336 25.3321
lfingers 7.12502
lthumb 9.29941 55.107
rfemur -9.53151 -4.23127 16.059
rtibia 65.0957
rfoot 7.84173 19.4104
rtoes -12.7348
lfemur 0.000124966 2.37578 -27.8085
ltibia 17.2327
lfoot 5.3044 -23.4947
ltoes 11.2038
147
root -10.9255 18.2173 1.33209 177.146 -0.521854 175.995
lowerback 8.31313 -3.55107 -5.46239
upperback -0.0595539 -5.2135 2.58471
thorax -3.98995 -2.48615 6.35684
lowerneck 7.83556 -24.6848 -15.766
upperneck 33.5874 -34.522 12.3065
head 16.078 -14.8339 2.62069
rclavicle -1.54555e-014 1.74931e-014
rhumerus -31.1258 -13.739 -78.1366
rradius 32.5756
rwrist 3.36597
rhand -16.4626 8.86466
rfingers 7.12502
rthumb 9.75389 -20.8895
lclavicle -1.54555e-014 1.74931e-014
lhumerus -36.5736 5.12049 84.5228
lradius 35.1166
lwrist -5.76301
lhand -15.9988 26.3093
lfingers 7.12502
lthumb 10.2013 56.042
rfemur -8.40018 -3.80711 16.8255
rtibia 63.7642
rfoot 8.89126 20.7635
rtoes -12.7418
lfemur -1.08189 2.42766 -27.6169
ltibia 18.0897
lfoot 5.12755 -23.5817
ltoes 10.8021
148
root -10.9265 18.2309 1.43232 177.428 -0.667252 176.266
lowerback 7.92116 -3.44533 -5.21411
upperback -0.197827 -5.02388 2.58745
thorax -3.96303 -2.39136 6.17665
lowerneck 7.91926 -24.6711 -15.8597
upperneck 33.5132 -34.5078 12.3676
head 16.0588 -14.8329 2.66594
rclavicle -2.00524e-014 -3.97569e-015
rhumerus -30.9403 -13.4872 -78.4152
rradius 32.4705
rwrist 3.17595
rhand -16.4186 8.21196
rfingers 7.12502
rthumb 9.7963 -21.5402
lclavicle -2.00524e-014 -3.97569e-015
lhumerus -36.9693 5.54301 84.233
lradius 34.7342
lwrist -5.7618
lhand -15.7019 26.5477
lfingers 7.12502
lthumb 10.4877 56.2661
rfemur -7.37216 -3.47249 17.7068
rtibia 62.2856
rfoot 10.5633 22.0406
rtoes -10.7673
lfemur -2.19514 2.56561 -27.3288
ltibia 18.9601
lfoot 5.39494 -23.7344
ltoes 11.518
149
root -10.9241 18.2301 1.53955 177.653 -0.827476 176.564
lowerback 7.75131 -3.35002 -4.97547
upperback -0.396389 -4.86184 2.59131
thorax -4.11739 -2.30178 6.02844
lowerneck 7.91469 -24.6763 -15.7906
upperneck 33.5912 -34.4472 12.1702
head 16.0136 -14.8016 2.60821
rclavicle -7.60351e-015 2.70347e-014
rhumerus -30.9274 -13.1695 -78.7009
rradius 32.4894
rwrist 3.14104
rhand -16.235 7.93393
rfingers 7.12502
rthumb 9.97341 -21.8098
lclavicle -7.60351e-015 2.70347e-014
lhumerus -37.5097 6.0622 83.8247
lradius 34.3851
lwrist -5.79583
lhand -16.0199 25.9338
lfingers 7.12502
lthumb 10.1809 55.6675
rfemur -6.20632 -3.19063 18.6846
rtibia 60.6269
rfoot 12.1994 23.0355
rtoes -9.22095
lfemur -3.23658 2.76511 -26.9979
ltibia 19.6869
lfoot 5.70654 -23.9841
ltoes 11.7165
150
root -10.9222 18.2161 1.65119 177.85 -1.07273 176.735
lowerback 7.67146 -3.27513 -4.86345
upperback -0.622236 -4.74377 2.56758
thorax -4.33609 -2.2287 5.93509
lowerneck 7.85743 -24.7141 -15.6734
upperneck 33.739 -34.4105 11.8846
head 15.9838 -14.7737 2.50248
rclavicle -8.71795e-014 4.92986e-014
rhumerus -31.1032 -12.7327 -78.9836
rradius 32.6264
rwrist 3.08509
rhand -16.3386 7.82949
rfingers 7.12502
rthumb 9.87351 -21.919
lclavicle -8.71795e-014 4.92986e-014
lhumerus -38.1478 6.65761 83.3984
lradius 34.1484
lwrist -5.66786
lhand -15.8902 26.4273
lfingers 7.12502
lthumb 10.3061 56.1547
rfemur -4.91122 -2.9961 19.5226
rtibia 58.7928
rfoot 13.3094 23.7608
rtoes -7.37097
lfemur -4.24996 2.88813 -26.8162
ltibia 20.4236
lfoot 5.9578 -24.1783
ltoes 11.9757
151
root -10.9228 18.2097 1.75704 178.08 -1.34027 176.726
lowerback 7.40927 -3.18661 -4.85515
upperback -0.756995 -4.61127 2.45283
thorax -4.35732 -2.15675 5.78338
lowerneck 7.85785 -24.7599 -15.7263
upperneck 33.8264 -34.4705 11.8759
head 16.0514 -14.7835 2.4893
rclavicle 3.64024e-014 2.54444e-014
rhumerus -31.1721 -12.4667 -79.2849
rradius 32.7548
rwrist 3.0475
rhand -16.3384 7.52167
rfingers 7.12502
rthumb 9.87367 -22.2268
lclavicle 3.64024e-014 2.54444e-014
lhumerus -38.5797 7.11544 82.965
lradius 33.9175
lwrist -5.43161
lhand -14.9631 28.3028
lfingers 7.12502
lthumb 11.2004 57.9838
rfemur -3.58413 -2.79304 20.1431
rtibia 56.7859
rfoot 13.5598 24.3368
rtoes -5.01862
lfemur -5.31647 2.99042 -26.8359
ltibia 21.3038
lfoot 6.18265 -24.3746
ltoes 12.5364
